<?xml version="1.0" standalone="no"?>
<!DOCTYPE svg PUBLIC "-//W3C//DTD SVG 20010904//EN"
 "http://www.w3.org/TR/2001/REC-SVG-20010904/DTD/svg10.dtd">
<svg version="1.0" xmlns="http://www.w3.org/2000/svg"
 width="64.000000pt" height="64.000000pt" viewBox="0 0 64.000000 64.000000"
 preserveAspectRatio="xMidYMid meet">

<g transform="translate(0.000000,64.000000) scale(0.100000,-0.100000)"
fill="#000000" stroke="none">
<path d="M30 625 c0 -4 10 -20 21 -37 16 -22 28 -74 49 -205 19 -120 33 -180
44 -191 14 -14 43 -18 162 -20 146 -4 194 1 194 18 0 5 -74 10 -164 12 -91 2
-168 7 -172 11 -4 4 -17 69 -29 145 l-21 137 225 3 c123 1 226 0 229 -2 2 -3
-3 -37 -13 -76 -13 -54 -24 -75 -43 -88 -15 -9 -83 -24 -170 -37 -91 -12 -147
-25 -150 -33 -5 -17 32 -15 181 7 131 20 151 27 179 58 14 15 58 163 58 196 0
4 -112 7 -249 7 l-249 0 -23 48 c-13 26 -32 48 -41 50 -10 2 -18 0 -18 -3z"/>
<path d="M176 114 c-20 -20 -20 -68 0 -88 8 -9 28 -16 44 -16 36 0 60 24 60
60 0 36 -24 60 -60 60 -16 0 -36 -7 -44 -16z m69 -44 c0 -18 -6 -26 -23 -28
-24 -4 -38 18 -28 44 3 9 15 14 28 12 17 -2 23 -10 23 -28z"/>
<path d="M386 108 c-20 -28 -20 -48 0 -76 23 -34 83 -27 104 11 13 24 13 30 0
55 -21 37 -81 44 -104 10z m79 -38 c0 -20 -6 -26 -28 -28 -18 -2 -29 2 -33 12
-11 28 4 48 33 44 22 -2 28 -8 28 -28z"/>
</g>
</svg>
